<?xml version="1.0" standalone="no"?>
<!DOCTYPE svg PUBLIC "-//W3C//DTD SVG 20010904//EN"
 "http://www.w3.org/TR/2001/REC-SVG-20010904/DTD/svg10.dtd">
<svg version="1.0" xmlns="http://www.w3.org/2000/svg"
 width="500.000000pt" height="500.000000pt" viewBox="0 0 500.000000 500.000000"
 preserveAspectRatio="xMidYMid meet">
<metadata>
Created by potrace 1.14, written by Peter Selinger 2001-2017
</metadata>
<g transform="translate(0.000000,500.000000) scale(0.100000,-0.100000)"
fill="#000000" stroke="none">
<path d="M2388 4375 c-1 -1 -27 -5 -56 -9 -210 -25 -392 -82 -592 -187 -142
-74 -272 -171 -395 -294 -157 -156 -259 -298 -344 -478 -248 -525 -213 -1143
92 -1629 200 -318 484 -554 826 -687 103 -40 268 -86 346 -97 22 -3 69 -9 105
-13 95 -12 330 -5 442 13 232 39 479 135 662 259 l59 40 -39 35 c-21 20 -83
76 -137 126 -54 50 -105 95 -112 99 -9 5 -45 -9 -97 -37 -74 -39 -288 -122
-288 -111 0 3 -10 1 -23 -4 -13 -5 -39 -12 -58 -15 -193 -30 -322 -28 -514 8
-215 40 -476 181 -645 348 -196 193 -342 478 -376 733 -3 28 -8 59 -10 70 -10
48 -3 258 11 340 54 314 225 612 460 800 28 22 52 42 55 45 3 3 30 22 60 42
224 146 488 221 750 213 146 -5 183 -10 300 -41 507 -133 881 -548 967 -1074
10 -57 10 -332 1 -387 -23 -133 -64 -264 -118 -376 -18 -37 -31 -69 -29 -70 8
-4 136 -123 206 -190 44 -42 78 -67 87 -64 16 6 111 190 145 282 224 593 110
1244 -302 1726 -180 210 -440 389 -703 485 -95 34 -235 72 -299 80 -16 2 -41
7 -55 10 -26 6 -375 15 -382 9z"/>
<path d="M2906 2281 c11 -17 55 -88 99 -157 44 -69 89 -140 100 -158 122 -199
173 -272 216 -313 91 -86 114 -107 214 -198 55 -49 109 -99 121 -110 11 -11
65 -60 119 -110 54 -49 105 -97 114 -105 9 -9 62 -58 119 -110 l104 -94 51 55
c85 92 171 185 190 206 18 20 17 22 -44 79 -34 33 -67 64 -73 69 -29 25 -278
254 -426 390 -36 34 -78 72 -93 85 -16 14 -68 62 -115 107 -93 87 -68 73 -616
345 l-99 50 19 -31z"/>
</g>
</svg>
